<svg width="35" height="32" viewBox="0 0 35 32" fill="none" xmlns="http://www.w3.org/2000/svg">
<g clip-path="url(#clip0_113_119)">
<path d="M33.3421 0L18.6959 10.8372L21.4195 4.45053L33.3421 0Z" fill="#E17726"/>
<path d="M0.825437 0.0126953L12.7162 4.45123L15.3024 10.9216L0.825437 0.0126953ZM27.448 23.0476L33.9214 23.1708L31.659 30.8564L23.76 28.6816L27.448 23.0476ZM6.68517 23.0476L10.3594 28.6816L2.4737 30.8566L0.225037 23.1708L6.68517 23.0476Z" fill="#E27625"/>
<path d="M14.9508 9.27356L15.2153 17.818L7.29919 17.4578L9.55093 14.0608L9.57946 14.0281L14.9508 9.27356ZM19.1005 9.17822L24.5539 14.0284L24.5821 14.0609L26.8339 17.458L18.9195 17.818L19.1005 9.17822ZM10.5913 23.0725L14.9137 26.4404L9.89266 28.8645L10.5913 23.0725ZM23.5428 23.072L24.2269 28.8646L19.2199 26.4401L23.5428 23.072Z" fill="#E27625"/>
<path d="M19.3304 26.123L24.4113 28.5833L19.6851 30.8294L19.7341 29.3449L19.3304 26.123ZM14.8015 26.1241L14.4136 29.3206L14.4455 30.8277L9.70813 28.5833L14.8015 26.1241Z" fill="#D5BFB2"/>
<path d="M13.3343 18.9331L14.662 21.7235L10.1416 20.3992L13.3343 18.9331ZM20.7989 18.9334L24.0067 20.3992L19.4715 21.7231L20.7989 18.9334Z" fill="#233447"/>
<path d="M10.9368 23.0439L10.2061 29.0492L6.28973 23.1752L10.9368 23.0439ZM23.1968 23.044L27.844 23.1752L23.9129 29.0495L23.1968 23.044ZM26.9483 17.1182L23.5663 20.565L20.9587 19.3734L19.7103 21.9979L18.8919 17.4847L26.9483 17.1182ZM7.18333 17.1182L15.2413 17.4847L14.4228 21.9979L13.1741 19.3738L10.5804 20.5651L7.18333 17.1182Z" fill="#CC6228"/>
<path d="M6.95544 16.411L10.7818 20.2938L10.9144 24.127L6.95544 16.411ZM27.1817 16.4041L23.2156 24.1338L23.3649 20.2938L27.1817 16.4041ZM15.0542 16.6475L15.2082 17.6169L15.5888 20.0317L15.3441 27.4483L14.1874 21.4903L14.187 21.4287L15.0542 16.6475ZM19.077 16.6341L19.9465 21.4287L19.9461 21.4903L18.7865 27.4633L18.7406 25.9693L18.5597 19.9877L19.077 16.6341Z" fill="#E27525"/>
<path d="M23.7051 20.1394L23.5756 23.4698L19.5391 26.6147L18.7231 26.0382L19.6377 21.3269L23.7051 20.1394ZM10.4423 20.1394L14.4955 21.3269L15.4101 26.0382L14.5941 26.6147L10.5575 23.4695L10.4423 20.1394Z" fill="#F5841F"/>
<path d="M8.93573 27.8477L14.1 30.2946L14.0781 29.2497L14.5103 28.8703H19.6215L20.0692 29.2483L20.0361 30.2925L25.1677 27.8538L22.6707 29.9173L19.6513 31.991H14.4688L11.4515 29.9087L8.93573 27.8477Z" fill="#C0AC9D"/>
<path d="M18.9605 25.7971L19.6906 26.313L20.1185 29.7269L19.4993 29.2041H14.6358L14.0284 29.7374L14.4422 26.3133L15.1726 25.7971H18.9605Z" fill="#161616"/>
<path d="M32.3752 0.300049L34.1333 5.57432L33.0353 10.9072L33.8172 11.5103L32.7592 12.3175L33.5544 12.9316L32.5015 13.8904L33.1479 14.3586L31.4324 16.362L24.3964 14.3134L24.3355 14.2807L19.2652 10.0036L32.3752 0.300049ZM1.75813 0.300049L14.8683 10.0036L9.79787 14.2807L9.73693 14.3134L2.70093 16.362L0.985467 14.3586L1.63133 13.8908L0.579067 12.9316L1.37267 12.3182L0.2988 11.5087L1.11013 10.9052L0 5.57458L1.75813 0.300049Z" fill="#763E1A"/>
<path d="M24.0523 13.8654L31.5073 16.036L33.9293 23.5008H27.5395L23.1368 23.5562L26.3387 17.3152L24.0523 13.8654ZM10.0811 13.8654L7.79427 17.3152L10.9965 23.5562L6.59587 23.5008H0.217468L2.62587 16.0361L10.0811 13.8654ZM21.7845 4.41504L19.6993 10.0469L19.2568 17.6549L19.0875 20.0396L19.074 26.1313H15.0592L15.0461 20.051L14.8763 17.6529L14.4336 10.0469L12.3487 4.41504H21.7845Z" fill="#F5841F"/>
</g>
<defs>
<clipPath id="clip0_113_119">
<rect width="34.1333" height="32" fill="white"/>
</clipPath>
</defs>
</svg>
